<svg xmlns="http://www.w3.org/2000/svg" viewBox="0 0 999 999" fill="currentColor" aria-hidden="true" focusable="false">
  <path d="M490 431C479 420 474 406 473 391 388 386 302 389 211 399 204 401 199 405 198 409 197 414 202 417 204 417 243 434 262 444 298 465 301 467 305 467 309 467 327 466 345 465 363 464 420 463 475 465 528 471L490 431ZM579 524L563 507C502 498 441 493 379 495 379 495 379 495 379 495 373 495 368 498 367 502 365 506 368 510 371 512 404 534 420 547 450 573 452 574 454 575 457 575 494 578 523 580 550 584L579 524ZM529 332C532 332 535 332 538 333L669 349 689 309C460 263 244 270 15 332 6 335 1 341 0 345-1 349 6 351 7 352 52 362 74 369 117 383 121 384 125 385 130 384 208 369 283 361 357 359 399 357 441 358 482 361 491 344 509 333 529 332ZM999 440C997 429 988 421 977 420L824 401 800 263C798 253 789 245 779 243 768 241 758 247 752 257L688 385 534 366C524 365 513 370 509 380 504 389 506 401 513 409L620 519 542 677 542 677 542 677C541 677 541 678 541 678 541 679 541 680 541 680 541 681 540 681 540 682 540 682 540 683 540 684 540 685 540 685 540 686 540 687 540 687 540 689 540 689 540 690 540 690 540 691 540 691 540 692 540 693 540 693 540 694 540 694 541 695 541 696 541 697 541 697 541 698 542 698 542 699 542 700 542 701 543 701 544 702 544 702 544 703 545 703 545 704 545 704 546 705 546 705 547 706 548 706 548 706 548 706 548 706 548 706 548 706 548 706 549 707 550 708 550 709 551 709 551 709 552 709 552 710 553 710 554 710 554 710 555 711 556 711 556 711 557 711 558 711 558 711 559 711 560 712 560 712 561 713 562 713 562 713 562 713 562 713 562 713 564 713 564 713 565 713 565 713 566 713 567 713 567 713 569 712 569 712 570 712 570 712 571 712 572 711 573 711 573 711 573 711 574 711 575 710 576 710 578 709L722 624 840 750C844 754 849 757 855 757 859 758 865 757 869 755 879 750 885 739 883 728L851 549 987 467C997 461 1001 450 999 440Z"/>
</svg>
