<svg xmlns="http://www.w3.org/2000/svg" width="78" height="78" viewBox="0 0 78 78" role="img" aria-label="Gummies">
  <circle cx="39" cy="39" r="39" fill="#2F4A3C"/>
  <g transform="translate(22 22)" fill="none" stroke="#F6F2E9" stroke-width="1.7" stroke-linecap="round" stroke-linejoin="round">
    <path d="M9 5a1.6 1.6 0 0 1 3-.6A1.6 1.6 0 0 1 15 5c1.4 0 2.3 1 2.3 2.2 0 .7-.3 1.2-.7 1.6.9.4 1.4 1.2 1.4 2.2 0 1.5-1.2 2.5-2.7 2.5.2.4.3.8.3 1.3 0 1.6-1.3 2.7-3 2.7s-3-1.1-3-2.7c0-.5.1-.9.3-1.3-1.5 0-2.7-1-2.7-2.5 0-1 .5-1.8 1.4-2.2-.4-.4-.7-.9-.7-1.6C5.7 6 6.6 5 8 5"/><circle cx="10" cy="9.5" r="1"/><circle cx="14" cy="11.5" r="1"/>
  </g>
</svg>
